<?xml version="1.0" encoding="UTF-8" standalone="no"?><!DOCTYPE svg PUBLIC "-//W3C//DTD SVG 1.1//EN" "http://www.w3.org/Graphics/SVG/1.1/DTD/svg11.dtd"><!-- Generated by graphviz version 2.40.1 (20161225.0304)
 --><!-- Title: G Pages: 1 --><svg xmlns="http://www.w3.org/2000/svg" xmlns:xlink="http://www.w3.org/1999/xlink" width="312pt" height="371pt" viewBox="0.00 0.00 312.29 371.10">
<g id="graph0" class="graph" transform="scale(1 1) rotate(0) translate(4 367.0996)">
<title>G</title>
<polygon fill="#ffffff" stroke="transparent" points="-4,4 -4,-367.0996 308.2918,-367.0996 308.2918,4 -4,4"/>
<!-- Cave_Start -->
<g id="node1" class="node">
<title>Cave_Start</title>
<polygon fill="none" stroke="#000000" points="151.6551,-363.0996 75.5771,-345.0996 151.6551,-327.0996 227.733,-345.0996 151.6551,-363.0996"/>
<polyline fill="none" stroke="#000000" points="87.2547,-347.8625 87.2547,-342.3367 "/>
<polyline fill="none" stroke="#000000" points="139.9775,-329.8625 163.3327,-329.8625 "/>
<polyline fill="none" stroke="#000000" points="216.0554,-342.3367 216.0554,-347.8625 "/>
<polyline fill="none" stroke="#000000" points="163.3327,-360.3367 139.9775,-360.3367 "/>
<text text-anchor="middle" x="151.6551" y="-340.8996" font-family="Times,serif" font-size="14.00" fill="#000000">Cave_Start</text>
</g>
<!-- Small_Opening -->
<g id="node2" class="node">
<title>Small_Opening</title>
<ellipse fill="none" stroke="#000000" cx="71.6551" cy="-273.0996" rx="71.8105" ry="18"/>
<text text-anchor="middle" x="71.6551" y="-268.8996" font-family="Times,serif" font-size="14.00" fill="#000000">Small_Opening</text>
</g>
<!-- Cave_Start&#45;&gt;Small_Opening -->
<g id="edge1" class="edge">
<title>Cave_Start-&gt;Small_Opening</title>
<path fill="none" stroke="#000000" d="M131.1962,-331.557C119.4173,-322.1337 104.8001,-309.2923 92.9136,-298.0452"/>
<polygon fill="#000000" stroke="#000000" points="95.1782,-295.3665 85.5541,-290.9364 90.315,-300.4013 95.1782,-295.3665"/>
</g>
<!-- Large_Opening -->
<g id="node3" class="node">
<title>Large_Opening</title>
<ellipse fill="none" stroke="#000000" cx="232.6551" cy="-273.0996" rx="71.7737" ry="18"/>
<text text-anchor="middle" x="232.6551" y="-268.8996" font-family="Times,serif" font-size="14.00" fill="#000000">Large_Opening</text>
</g>
<!-- Cave_Start&#45;&gt;Large_Opening -->
<g id="edge2" class="edge">
<title>Cave_Start-&gt;Large_Opening</title>
<path fill="none" stroke="#000000" d="M163.1971,-329.8303C172.8695,-320.1903 186.8521,-307.5418 199.8012,-296.6349"/>
<polygon fill="#000000" stroke="#000000" points="202.2108,-299.1839 207.6825,-290.1113 197.7473,-293.7915 202.2108,-299.1839"/>
</g>
<!-- Small_Opening&#45;&gt;Cave_Start -->
<g id="edge3" class="edge">
<title>Small_Opening-&gt;Cave_Start</title>
<path fill="none" stroke="#000000" d="M96.5025,-290.2025C108.1733,-299.7932 121.7667,-311.8811 132.6214,-322.2712"/>
<polygon fill="#000000" stroke="#000000" points="130.3826,-324.9776 139.9747,-329.4767 135.2818,-319.9778 130.3826,-324.9776"/>
</g>
<!-- Light_At_End -->
<g id="node4" class="node">
<title>Light_At_End</title>
<ellipse fill="none" stroke="#000000" cx="71.6551" cy="-201.0996" rx="66.6575" ry="18"/>
<text text-anchor="middle" x="71.6551" y="-196.8996" font-family="Times,serif" font-size="14.00" fill="#000000">Light_At_End</text>
</g>
<!-- Small_Opening&#45;&gt;Light_At_End -->
<g id="edge5" class="edge">
<title>Small_Opening-&gt;Light_At_End</title>
<path fill="none" stroke="#000000" d="M65.7027,-254.931C64.9523,-247.2306 64.7314,-238.0739 65.04,-229.5162"/>
<polygon fill="#000000" stroke="#000000" points="68.5343,-229.7157 65.6791,-219.5129 61.5485,-229.2693 68.5343,-229.7157"/>
</g>
<!-- Large_Opening&#45;&gt;Cave_Start -->
<g id="edge4" class="edge">
<title>Large_Opening-&gt;Cave_Start</title>
<path fill="none" stroke="#000000" d="M218.5084,-290.9364C207.8416,-301.3428 193.1105,-314.4928 180.1164,-325.2297"/>
<polygon fill="#000000" stroke="#000000" points="177.8713,-322.544 172.302,-331.557 182.2763,-327.9842 177.8713,-322.544"/>
</g>
<!-- Bats_Cave -->
<g id="node6" class="node">
<title>Bats_Cave</title>
<ellipse fill="none" stroke="#000000" cx="232.6551" cy="-201.0996" rx="52.7469" ry="18"/>
<text text-anchor="middle" x="232.6551" y="-196.8996" font-family="Times,serif" font-size="14.00" fill="#000000">Bats_Cave</text>
</g>
<!-- Large_Opening&#45;&gt;Bats_Cave -->
<g id="edge9" class="edge">
<title>Large_Opening-&gt;Bats_Cave</title>
<path fill="none" stroke="#000000" d="M226.7027,-254.931C225.9407,-247.1121 225.7247,-237.7919 226.0546,-229.1217"/>
<polygon fill="#000000" stroke="#000000" points="229.5555,-229.2235 226.7278,-219.013 222.571,-228.7583 229.5555,-229.2235"/>
</g>
<!-- Light_At_End&#45;&gt;Small_Opening -->
<g id="edge6" class="edge">
<title>Light_At_End-&gt;Small_Opening</title>
<path fill="none" stroke="#000000" d="M77.6311,-219.5129C78.3622,-227.1589 78.5754,-236.208 78.2706,-244.6722"/>
<polygon fill="#000000" stroke="#000000" points="74.7599,-244.726 77.6075,-254.931 81.7453,-245.1776 74.7599,-244.726"/>
</g>
<!-- Arena -->
<g id="node5" class="node">
<title>Arena</title>
<ellipse fill="none" stroke="#000000" cx="71.6551" cy="-129.0996" rx="34.7496" ry="18"/>
<text text-anchor="middle" x="71.6551" y="-124.8996" font-family="Times,serif" font-size="14.00" fill="#000000">Arena</text>
</g>
<!-- Light_At_End&#45;&gt;Arena -->
<g id="edge7" class="edge">
<title>Light_At_End-&gt;Arena</title>
<path fill="none" stroke="#000000" d="M65.7027,-182.931C64.9407,-175.1121 64.7247,-165.7919 65.0546,-157.1217"/>
<polygon fill="#000000" stroke="#000000" points="68.5555,-157.2235 65.7278,-147.013 61.571,-156.7583 68.5555,-157.2235"/>
</g>
<!-- Arena&#45;&gt;Light_At_End -->
<g id="edge8" class="edge">
<title>Arena-&gt;Light_At_End</title>
<path fill="none" stroke="#000000" d="M77.5824,-147.013C78.3562,-154.7989 78.5842,-164.1096 78.2661,-172.7937"/>
<polygon fill="#000000" stroke="#000000" points="74.7633,-172.725 77.6075,-182.931 81.7486,-173.179 74.7633,-172.725"/>
</g>
<!-- Cave_Exit -->
<g id="node7" class="node">
<title>Cave_Exit</title>
<polygon fill="none" stroke="#000000" points="140.2547,-75.1495 65.0554,-75.1495 65.0554,.0499 140.2547,.0499 140.2547,-75.1495"/>
<polyline fill="none" stroke="#000000" points="77.0554,-75.1495 65.0554,-63.1495 "/>
<polyline fill="none" stroke="#000000" points="65.0554,-11.9501 77.0554,.0499 "/>
<polyline fill="none" stroke="#000000" points="128.2547,.0499 140.2547,-11.9501 "/>
<polyline fill="none" stroke="#000000" points="140.2547,-63.1495 128.2547,-75.1495 "/>
<text text-anchor="middle" x="102.6551" y="-33.3498" font-family="Times,serif" font-size="14.00" fill="#000000">Cave_Exit</text>
</g>
<!-- Arena&#45;&gt;Cave_Exit -->
<g id="edge12" class="edge">
<title>Arena-&gt;Cave_Exit</title>
<path fill="none" stroke="#000000" d="M77.7797,-111.0123C80.3465,-103.4319 83.4628,-94.2288 86.6091,-84.937"/>
<polygon fill="#000000" stroke="#000000" points="89.9848,-85.8805 89.877,-75.2862 83.3546,-83.6354 89.9848,-85.8805"/>
</g>
<!-- Bats_Cave&#45;&gt;Large_Opening -->
<g id="edge10" class="edge">
<title>Bats_Cave-&gt;Large_Opening</title>
<path fill="none" stroke="#000000" d="M238.5824,-219.013C239.3562,-226.7989 239.5842,-236.1096 239.2661,-244.7937"/>
<polygon fill="#000000" stroke="#000000" points="235.7633,-244.725 238.6075,-254.931 242.7486,-245.179 235.7633,-244.725"/>
</g>
<!-- Bats_Cave&#45;&gt;Cave_Exit -->
<g id="edge11" class="edge">
<title>Bats_Cave-&gt;Cave_Exit</title>
<path fill="none" stroke="#000000" d="M218.7428,-183.5969C199.9031,-159.8952 165.5952,-116.7332 139.1436,-83.4551"/>
<polygon fill="#000000" stroke="#000000" points="141.5644,-80.8758 132.6021,-75.2254 136.0846,-85.2315 141.5644,-80.8758"/>
</g>
</g>
</svg>